# xmcd
#
# Track frame offsets:
#   150
#   12452
#   28289
#   34093
#   48384
#
# Disc length: 809 seconds
#
# Revision: 0
# Processed by: cddbd v1.5.2PL0 Copyright (c) Steve Scherf et al.
# Submitted via: GXTranscoder 2.0.1939
#
DISCID=3c032705
DTITLE=f - f
DYEAR=2008
DGENRE=Books and Spoken
TTITLE0=r
TTITLE1=e
TTITLE2=t
TTITLE3=f
TTITLE4=w
EXTD=
EXTT0=
EXTT1=
EXTT2=
EXTT3=
EXTT4=
PLAYORDER=
